<?xml version="1.0" encoding="UTF-8"?>
<svg xmlns="http://www.w3.org/2000/svg" xmlns:xlink="http://www.w3.org/1999/xlink" width="46px" height="46px" viewBox="0 0 46 46" version="1.1">
<g id="surface1">
<path style="fill-rule:nonzero;fill:rgb(15.686275%,15.686275%,15.686275%);fill-opacity:1;stroke-width:12.8;stroke-linecap:butt;stroke-linejoin:miter;stroke:rgb(0%,0%,0%);stroke-opacity:1;stroke-miterlimit:4;" d="M 508.478261 169.347826 C 502.086957 154.869565 488 145.478261 472.73913 145.478261 L 470.913043 145.565217 L 460.565217 146.086957 C 437.347826 113.826087 404.782609 88.956522 365.608696 73.652174 C 339.956522 63.608696 311.391304 57.652174 280.652174 55.956522 C 274.26087 55.608696 267.782609 55.391304 261.26087 55.391304 C 256.608696 55.391304 251.826087 55.478261 247 55.652174 C 232.695652 56.217391 218.565217 58.043478 205 61.173913 C 202.826087 61.652174 200.608696 62.173913 198.434783 62.73913 C 171.217391 46.782609 144.652174 43.173913 126.217391 43.173913 C 124.695652 43.173913 123.217391 43.217391 121.782609 43.26087 C 118 43.391304 115.26087 43.521739 113.173913 43.73913 C 109 44.173913 105.347826 45.304348 102.217391 46.956522 C 95.826087 49.652174 90.304348 54.26087 86.434783 60.304348 C 80.782609 69.304348 79.434783 80.086957 82.695652 90 L 94.782609 127.130435 C 92.391304 130.043478 90.130435 133 88 135.956522 C 78.347826 149.521739 71.608696 162.043478 65.73913 173.043478 C 57.73913 187.956522 52.565217 197.217391 46.826087 199.521739 L 46.304348 199.695652 L 44.869565 200.26087 L 41.652174 201.478261 C 27.391304 206.826087 -6 219.347826 0.956522 254.043478 L 2.434783 261.73913 C 8.391304 291.826087 12.304348 310.826087 14.956522 318.73913 L 16.478261 323.434783 C 21.782609 339.608696 25.086957 347.826087 42.173913 358.826087 C 49.652174 363.608696 58.782609 365.347826 68.434783 367.130435 C 71.304348 367.652174 75.521739 368.434783 77.391304 368.956522 C 79.217391 369.869565 81.173913 370.608696 83.173913 371.043478 C 89.956522 372.608696 95.434783 373.434783 99.869565 374.086957 C 102.782609 374.478261 106.347826 375 107.304348 375.391304 C 107.782609 375.73913 111.434783 378.73913 121.043478 396.086957 L 121.521739 396.913043 C 127.391304 406.608696 133.73913 422.304348 135.826087 427.478261 C 136.956522 430.217391 137.913043 432.73913 138.782609 434.869565 C 140.695652 439.73913 141.565217 442 142.565217 443.956522 C 150.869565 460.521739 165.652174 468.826087 186.565217 468.826087 L 215.956522 468.826087 C 234.782609 468.826087 253.826087 454.826087 253.826087 423.565217 L 253.826087 413.217391 L 305.73913 413.217391 L 305.73913 423.565217 C 305.73913 454.826087 324.391304 468.826087 342.869565 468.826087 L 370.434783 468.826087 C 391.086957 468.826087 405.565217 460.304348 413.434783 443.478261 C 414.391304 441.391304 415.26087 439 417.217391 433.826087 C 417.826087 432.130435 418.521739 430.26087 419.26087 428.217391 C 431.478261 404.086957 443.26087 385.347826 456.26087 369.304348 C 483.217391 337.608696 497.478261 298.73913 497.478261 256.826087 C 497.478261 245.608696 496.304348 234.086957 494 222.565217 C 495.782609 220.347826 497.869565 217.913043 500.26087 215.26087 C 512.086957 202.130435 515.26087 184.565217 508.478261 169.347826 Z M 480.869565 197.73913 C 473.086957 206.26087 468.086957 213.347826 465.826087 216.782609 C 469.521739 230.521739 471.304348 244.086957 471.304348 256.826087 C 471.304348 295.26087 457.565217 327.521739 436.130435 352.608696 C 419 373.695652 405.956522 396.521739 395.304348 417.695652 C 392.565217 424.956522 390.521739 430.608696 389.73913 432.391304 C 387 438.26087 382.869565 442.652174 370.434783 442.652174 C 358.043478 442.652174 351.173913 442.652174 342.913043 442.652174 C 334.652174 442.652174 331.913043 433.826087 331.913043 423.565217 C 331.913043 421.956522 331.913043 419.956522 331.913043 417.695652 L 331.913043 387.043478 L 227.652174 387.043478 L 227.652174 417.695652 C 227.652174 419.956522 227.652174 421.956522 227.652174 423.565217 C 227.652174 433.826087 224.73913 442.652174 215.956522 442.652174 C 207.130435 442.652174 199.782609 442.652174 186.565217 442.652174 C 173.347826 442.652174 168.956522 438.26087 166 432.391304 C 165.173913 430.608696 163 424.956522 160.086957 417.695652 C 155.869565 407.173913 149.956522 393.347826 143.913043 383.347826 C 121.73913 343.347826 117.391304 352.086957 89.043478 345.565217 L 89.043478 345.521739 C 82.73913 341.913043 62.434783 340.73913 56.347826 336.826087 C 45.217391 329.652174 45.695652 328.173913 39.782609 310.521739 C 36.695652 301.173913 29.173913 261.826087 26.608696 248.913043 C 23.782609 234.913043 39.73913 230.217391 54.434783 224.608696 L 56.478261 223.826087 C 79.869565 214.521739 85.304348 184.869565 109.304348 151.173913 C 113.608696 145.130435 118.695652 139.173913 124.391304 133.391304 L 107.565217 81.913043 C 106.73913 79.391304 107.086957 76.652174 108.521739 74.391304 C 109.956522 72.173913 112.304348 70.652174 114.956522 70.347826 C 114.956522 70.347826 111.304348 69.73913 122.608696 69.391304 C 123.782609 69.391304 124.956522 69.347826 126.217391 69.347826 C 143.652174 69.347826 169.130435 73.26087 194.26087 91.173913 C 199.565217 89.478261 205.086957 87.956522 210.782609 86.652174 C 222.478261 84 234.869565 82.304348 247.956522 81.826087 C 252.478261 81.652174 256.913043 81.565217 261.26087 81.565217 C 267.391304 81.565217 273.347826 81.73913 279.173913 82.043478 C 308.478261 83.73913 334.043478 89.391304 356.086957 98.043478 C 398.869565 114.695652 428.521739 142.391304 447 172.956522 C 460.73913 172.26087 462.782609 172.173913 472.173913 171.695652 L 472.73913 171.695652 C 482.782609 171.695652 491.782609 185.565217 480.869565 197.73913 Z M 480.869565 197.73913 " transform="matrix(0.0898438,0,0,0.0898438,0,0)"/>
<path style="fill-rule:nonzero;fill:rgb(15.686275%,15.686275%,15.686275%);fill-opacity:1;stroke-width:12.8;stroke-linecap:butt;stroke-linejoin:miter;stroke:rgb(0%,0%,0%);stroke-opacity:1;stroke-miterlimit:4;" d="M 125.478261 224.304348 C 114.695652 224.304348 105.956522 233.043478 105.956522 243.826087 C 105.956522 254.608696 114.695652 263.347826 125.478261 263.347826 C 136.26087 263.347826 144.956522 254.608696 144.956522 243.826087 C 144.956522 233.043478 136.217391 224.304348 125.478261 224.304348 Z M 125.478261 224.304348 " transform="matrix(0.0898438,0,0,0.0898438,0,0)"/>
<path style="fill-rule:nonzero;fill:rgb(15.686275%,15.686275%,15.686275%);fill-opacity:1;stroke-width:12.8;stroke-linecap:butt;stroke-linejoin:miter;stroke:rgb(0%,0%,0%);stroke-opacity:1;stroke-miterlimit:4;" d="M 248.956522 106.565217 L 247.608696 130.826087 C 249.73913 130.913043 252.130435 131.043478 255.130435 131.173913 C 277.26087 132.391304 311.173913 134.304348 353.26087 145.956522 L 354.652174 120.826087 C 310.956522 109.73913 278.869565 108.173913 256.478261 106.913043 C 253.608696 106.73913 251.086957 106.652174 248.956522 106.565217 Z M 248.956522 106.565217 " transform="matrix(0.0898438,0,0,0.0898438,0,0)"/>
</g>
</svg>
