<?xml version="1.0" encoding="UTF-8"?>
<svg xmlns="http://www.w3.org/2000/svg" xmlns:xlink="http://www.w3.org/1999/xlink" width="20px" height="20px" viewBox="0 0 20 20" version="1.1">
<g id="surface1">
<path style="fill-rule:evenodd;fill:rgb(15.686275%,15.686275%,15.686275%);fill-opacity:1;stroke-width:0.00024;stroke-linecap:butt;stroke-linejoin:miter;stroke:rgb(15.686275%,15.686275%,15.686275%);stroke-opacity:1;stroke-miterlimit:4;" d="M 12 18 C 15.314063 18 18 15.314063 18 12 C 18 8.685938 15.314063 6 12 6 C 8.685938 6 6 8.685938 6 12 C 6 15.314063 8.685938 18 12 18 Z M 12 15.998438 C 14.207813 15.998438 15.998438 14.207813 15.998438 12 C 15.998438 9.792188 14.207813 8.001563 12 8.001563 C 9.792188 8.001563 8.001563 9.792188 8.001563 12 C 8.001563 14.207813 9.792188 15.998438 12 15.998438 Z M 12 15.998438 " transform="matrix(0.833333,0,0,0.833333,0,0)"/>
<path style="fill-rule:nonzero;fill:rgb(15.686275%,15.686275%,15.686275%);fill-opacity:1;stroke-width:0.00024;stroke-linecap:butt;stroke-linejoin:miter;stroke:rgb(15.686275%,15.686275%,15.686275%);stroke-opacity:1;stroke-miterlimit:4;" d="M 18 5.001563 C 17.446875 5.001563 17.001563 5.446875 17.001563 6 C 17.001563 6.553125 17.446875 6.998438 18 6.998438 C 18.553125 6.998438 18.998438 6.553125 18.998438 6 C 18.998438 5.446875 18.553125 5.001563 18 5.001563 Z M 18 5.001563 " transform="matrix(0.833333,0,0,0.833333,0,0)"/>
<path style="fill-rule:evenodd;fill:rgb(15.686275%,15.686275%,15.686275%);fill-opacity:1;stroke-width:0.00024;stroke-linecap:butt;stroke-linejoin:miter;stroke:rgb(15.686275%,15.686275%,15.686275%);stroke-opacity:1;stroke-miterlimit:4;" d="M 1.654688 4.275 C 0.998438 5.559375 0.998438 7.2375 0.998438 10.598438 L 0.998438 13.401563 C 0.998438 16.7625 0.998438 18.440625 1.654688 19.725 C 2.23125 20.854688 3.145313 21.76875 4.275 22.345313 C 5.559375 23.001563 7.2375 23.001563 10.598438 23.001563 L 13.401563 23.001563 C 16.7625 23.001563 18.440625 23.001563 19.725 22.345313 C 20.854688 21.76875 21.76875 20.854688 22.345313 19.725 C 23.001563 18.440625 23.001563 16.7625 23.001563 13.401563 L 23.001563 10.598438 C 23.001563 7.2375 23.001563 5.559375 22.345313 4.275 C 21.76875 3.145313 20.854688 2.23125 19.725 1.654688 C 18.440625 0.998438 16.7625 0.998438 13.401563 0.998438 L 10.598438 0.998438 C 7.2375 0.998438 5.559375 0.998438 4.275 1.654688 C 3.145313 2.23125 2.23125 3.145313 1.654688 4.275 Z M 13.401563 3 L 10.598438 3 C 8.8875 3 7.720313 3 6.820313 3.075 C 5.94375 3.145313 5.498438 3.276563 5.184375 3.435938 C 4.429688 3.820313 3.820313 4.429688 3.435938 5.184375 C 3.276563 5.498438 3.145313 5.94375 3.075 6.820313 C 3 7.720313 3 8.8875 3 10.598438 L 3 13.401563 C 3 15.1125 3 16.279688 3.075 17.179688 C 3.145313 18.05625 3.276563 18.501563 3.435938 18.815625 C 3.820313 19.570313 4.429688 20.179688 5.184375 20.564063 C 5.498438 20.723438 5.94375 20.854688 6.820313 20.925 C 7.720313 21 8.8875 21 10.598438 21 L 13.401563 21 C 15.1125 21 16.279688 21 17.179688 20.925 C 18.05625 20.854688 18.501563 20.723438 18.815625 20.564063 C 19.570313 20.179688 20.179688 19.570313 20.564063 18.815625 C 20.723438 18.501563 20.854688 18.05625 20.925 17.179688 C 21 16.279688 21 15.1125 21 13.401563 L 21 10.598438 C 21 8.8875 21 7.720313 20.925 6.820313 C 20.854688 5.94375 20.723438 5.498438 20.564063 5.184375 C 20.179688 4.429688 19.570313 3.820313 18.815625 3.435938 C 18.501563 3.276563 18.05625 3.145313 17.179688 3.075 C 16.279688 3 15.1125 3 13.401563 3 Z M 13.401563 3 " transform="matrix(0.833333,0,0,0.833333,0,0)"/>
</g>
</svg>
