<?xml version="1.0" encoding="UTF-8"?>
<svg xmlns="http://www.w3.org/2000/svg" xmlns:xlink="http://www.w3.org/1999/xlink" width="46px" height="46px" viewBox="0 0 46 46" version="1.1">
<g id="surface1">
<path style="fill:none;stroke-width:2;stroke-linecap:round;stroke-linejoin:round;stroke:rgb(15.686275%,15.686275%,15.686275%);stroke-opacity:1;stroke-miterlimit:4;" d="M 7.999321 16.000679 C 7.447011 16.000679 7.000679 16.447011 7.000679 16.999321 C 7.000679 17.55163 7.447011 18 7.999321 18 C 8.55163 18 9 17.55163 9 16.999321 C 9 16.447011 8.55163 16.000679 7.999321 16.000679 Z M 7.999321 16.000679 L 8.007473 12 M 7.999321 16.999321 L 8.007473 17.007473 M 19.999321 4.999321 C 19.999321 6.10394 19.10462 7.000679 18 7.000679 C 16.89538 7.000679 16.000679 6.10394 16.000679 4.999321 C 16.000679 3.894701 16.89538 3 18 3 C 19.10462 3 19.999321 3.894701 19.999321 4.999321 Z M 12 16.999321 C 12 19.20856 10.20856 21 7.999321 21 C 5.790082 21 4.000679 19.20856 4.000679 16.999321 C 4.000679 15.986413 4.377717 15.059103 4.999321 14.35394 L 4.999321 6 C 4.999321 4.343071 6.342391 3 7.999321 3 C 9.65625 3 10.999321 4.343071 10.999321 6 L 10.999321 14.35394 C 11.622962 15.059103 12 15.986413 12 16.999321 Z M 12 16.999321 " transform="matrix(1.916667,0,0,1.916667,0,0)"/>
</g>
</svg>
