<?xml version="1.0" encoding="UTF-8"?>
<svg xmlns="http://www.w3.org/2000/svg" xmlns:xlink="http://www.w3.org/1999/xlink" width="46px" height="46px" viewBox="0 0 46 46" version="1.1">
<g id="surface1">
<path style="fill:none;stroke-width:2;stroke-linecap:round;stroke-linejoin:round;stroke:rgb(15.686275%,15.686275%,15.686275%);stroke-opacity:1;stroke-miterlimit:4;" d="M 9 12 L 10.999321 13.999321 L 15 10.000679 M 19.999321 12 C 19.999321 16.461277 14.539402 19.693614 12.641984 20.682065 C 12.436141 20.790082 12.334239 20.843071 12.191576 20.871603 C 12.079484 20.891984 11.920516 20.891984 11.808424 20.871603 C 11.665761 20.843071 11.563859 20.790082 11.358016 20.682065 C 9.460598 19.693614 4.000679 16.461277 4.000679 12 L 4.000679 8.217391 C 4.000679 7.418478 4.000679 7.019022 4.131114 6.674592 C 4.247283 6.370924 4.434783 6.099864 4.67731 5.88587 C 4.954484 5.643342 5.327446 5.502717 6.075408 5.221467 L 11.4375 3.209918 C 11.64538 3.132473 11.749321 3.09375 11.857337 3.077446 C 11.951087 3.065217 12.048913 3.065217 12.142663 3.077446 C 12.250679 3.09375 12.35462 3.132473 12.5625 3.209918 L 17.924592 5.221467 C 18.672554 5.502717 19.045516 5.643342 19.32269 5.88587 C 19.565217 6.099864 19.752717 6.370924 19.868886 6.674592 C 19.999321 7.019022 19.999321 7.418478 19.999321 8.217391 Z M 19.999321 12 " transform="matrix(1.916667,0,0,1.916667,0,0)"/>
</g>
</svg>
