<?xml version="1.0" encoding="UTF-8"?>
<svg xmlns="http://www.w3.org/2000/svg" xmlns:xlink="http://www.w3.org/1999/xlink" width="28px" height="28px" viewBox="0 0 28 28" version="1.1">
<g id="surface1">
<path style="fill-rule:evenodd;fill:rgb(86.274511%,89.803922%,89.411765%);fill-opacity:1;stroke-width:0.00032;stroke-linecap:round;stroke-linejoin:round;stroke:rgb(0%,0%,0%);stroke-opacity:1;stroke-miterlimit:4.1;" d="M 326 505.763393 C 325.736607 505.763393 325.482143 505.870536 325.294643 506.058036 L 323.5 507.848214 L 322.705357 507.058036 C 322.316964 506.665179 321.683036 506.665179 321.294643 507.058036 C 320.901786 507.446429 320.901786 508.080357 321.294643 508.46875 L 322.794643 509.96875 C 323.183036 510.361607 323.816964 510.361607 324.205357 509.96875 L 326.705357 507.46875 C 327.098214 507.080357 327.098214 506.446429 326.705357 506.058036 C 326.517857 505.870536 326.263393 505.763393 326 505.763393 Z M 326 505.763393 " transform="matrix(0.875,0,0,0.875,-262.5,-423.5)"/>
<path style="fill-rule:evenodd;fill:rgb(86.274511%,89.803922%,89.411765%);fill-opacity:1;stroke-width:0.00032;stroke-linecap:round;stroke-linejoin:round;stroke:rgb(0%,0%,0%);stroke-opacity:1;stroke-miterlimit:4.1;" d="M 307 504.013393 C 306.446429 504.013393 306 504.459821 306 505.013393 C 306 505.566964 306.446429 506.013393 307 506.013393 L 310 506.013393 C 310.553571 506.013393 311 505.566964 311 505.013393 C 311 504.459821 310.553571 504.013393 310 504.013393 Z M 307 504.013393 " transform="matrix(0.875,0,0,0.875,-262.5,-423.5)"/>
<path style="fill-rule:evenodd;fill:rgb(86.274511%,89.803922%,89.411765%);fill-opacity:1;stroke-width:0.00032;stroke-linecap:round;stroke-linejoin:round;stroke:rgb(0%,0%,0%);stroke-opacity:1;stroke-miterlimit:4.1;" d="M 306 486.013393 C 305.647321 486.013393 305.321429 486.196429 305.142857 486.5 L 302.142857 491.5 C 302.089286 491.633929 302.066964 491.700893 302.049107 491.772321 C 302.03125 491.830357 302.017857 491.892857 302.013393 491.955357 L 302 509.013393 C 302 509.566964 302.446429 510.013393 303 510.013393 L 318.34375 510.013393 C 319.174107 512.339286 321.397321 514.013393 324 514.013393 C 327.303571 514.013393 330 511.316964 330 508.013393 C 330 505.053571 327.830357 502.580357 325 502.098214 L 325 492.013393 C 324.991071 491.870536 324.96875 491.754464 324.928571 491.647321 L 321.857143 486.5 C 321.678571 486.196429 321.352679 486.013393 321 486.013393 Z M 306.566964 488.013393 L 310.785714 488.013393 L 310.200893 491.013393 L 304.763393 491.013393 Z M 312.825893 488.013393 L 315.183036 488.013393 L 315.785714 491.013393 L 312.241071 491.013393 Z M 317.223214 488.013393 L 320.433036 488.013393 L 322.236607 491.013393 L 317.825893 491.013393 Z M 304 493.013393 L 310 493.013393 L 310 501.013393 C 310 501.419643 310.245536 501.78125 310.616071 501.9375 C 310.991071 502.09375 311.419643 502.004464 311.705357 501.71875 L 314 499.428571 L 316.294643 501.71875 C 316.580357 502.004464 317.008929 502.09375 317.383929 501.9375 C 317.754464 501.78125 318 501.419643 318 501.013393 L 318 493.013393 L 323 493.013393 L 323 502.098214 C 320.169643 502.580357 318 505.053571 318 508.013393 L 304 508.013393 Z M 312 493.013393 L 316 493.013393 L 316 498.598214 L 314.705357 497.308036 C 314.316964 496.915179 313.683036 496.915179 313.294643 497.308036 L 312 498.598214 Z M 324 504.013393 C 326.21875 504.013393 328 505.794643 328 508.013393 C 328 510.236607 326.21875 512.013393 324 512.013393 C 322.098214 512.013393 320.522321 510.709821 320.107143 508.941964 C 320.102679 508.852679 320.084821 508.767857 320.053571 508.683036 C 320.017857 508.464286 320 508.241071 320 508.013393 C 320 505.794643 321.78125 504.013393 324 504.013393 Z M 324 504.013393 " transform="matrix(0.875,0,0,0.875,-262.5,-423.5)"/>
</g>
</svg>
