<?xml version="1.0" encoding="UTF-8"?>
<svg id="Capa_2" data-name="Capa 2" xmlns="http://www.w3.org/2000/svg" viewBox="0 0 147.04 32">
  <defs>
    <style>
      .cls-1 {
        fill: #80915b;
      }

      .cls-1, .cls-2 {
        stroke-width: 0px;
      }

      .cls-2 {
        fill: #282828;
      }
    </style>
  </defs>
  <g id="Capa_1-2" data-name="Capa 1">
    <g>
      <g>
        <path class="cls-2" d="m120.09,15.34l3.35-.66c.5,1.96,1.49,3.29,3.98,3.29,1.89,0,2.82-.73,2.85-1.96,0-1.13-.8-1.73-3.92-2.29-4.22-.83-5.71-2.29-5.71-4.78,0-2.82,2.06-4.65,6.14-4.65s6.01,1.83,6.67,4.81l-3.42.76c-.46-2.06-1.39-2.92-3.25-2.92-1.69,0-2.59.7-2.59,1.83s.63,1.83,3.78,2.36c4.35.8,5.81,2.39,5.81,4.78,0,2.92-2.03,4.81-6.44,4.81-5.01,0-6.71-2.32-7.27-5.38Z"/>
        <g>
          <path class="cls-1" d="m0,10.29C0,4.32,3.92,0,9.89,0c5.21,0,8.66,3.39,9.39,8.2l-2.29.46c-.66-3.85-3.12-6.44-7.14-6.44-4.75,0-7.47,3.49-7.47,8.07s2.72,8.17,7.47,8.17c4.12,0,6.54-2.72,7.17-6.67l2.29.4c-.73,4.98-4.18,8.47-9.46,8.47C3.85,20.65,0,16.23,0,10.29Z"/>
          <path class="cls-1" d="m20.28,12.61c0-5.08,3.22-8.13,7.77-8.13s7.07,2.89,7.07,7.17c0,.4-.03,1-.07,1.63h-12.48c.27,3.35,2.22,5.31,5.54,5.31,3.05,0,4.28-1.59,4.85-3.59l2.06.6c-.8,3.15-3.09,5.05-6.9,5.05-4.78,0-7.83-3.02-7.83-8.03Zm12.68-1.23c-.17-3.09-1.79-4.88-4.98-4.88-3.02,0-4.98,1.66-5.34,4.88h10.32Z"/>
          <path class="cls-1" d="m58.16,10.89c-.63-2.69-2.12-4.28-5.15-4.28-3.22,0-5.48,2.03-5.48,5.98,0,3.72,2.16,5.94,5.58,5.94s4.45-1.99,5.11-4.45l2.19.5c-.76,3.82-2.99,6.08-7.24,6.08-4.81,0-7.97-3.02-7.97-8.1s3.35-8.07,7.83-8.07,6.64,2.22,7.3,5.98l-2.19.43Z"/>
          <path class="cls-1" d="m61.51,12.52c0-5.01,3.22-8.03,7.77-8.03s7.77,3.02,7.77,8.03-2.89,8.13-7.77,8.13-7.77-3.12-7.77-8.13Zm2.29-.03c0,3.62,1.96,6.04,5.44,6.04s5.51-2.42,5.51-6.04-2.06-5.88-5.48-5.88-5.48,2.26-5.48,5.88Z"/>
        </g>
        <rect class="cls-1" x="37.18" y="4.85" width="2.29" height="15.44"/>
        <rect class="cls-1" x="41.76" y="3.64" width="2.29" height="4.71" transform="translate(48.89 -36.91) rotate(90)"/>
        <rect class="cls-1" x="143.02" y="4.68" width="4.02" height="3.2"/>
        <polygon class="cls-2" points="138.31 .53 138.31 4.68 134.29 4.68 134.29 7.88 138.31 7.88 138.31 20.71 141.94 20.71 141.94 .53 138.31 .53"/>
        <polygon class="cls-2" points="99.59 16.71 99.59 .37 96.01 .37 96.01 16.71 96.01 20.28 99.59 20.28 102.15 20.28 102.15 16.71 99.59 16.71"/>
        <path class="cls-2" d="m117.09,17.41V4.68h-12.06v2.96h8.95v2.57h-4.34c-1.06,0-2.02.22-2.89.67-.87.45-1.55,1.07-2.05,1.86-.5.79-.75,1.68-.75,2.66s.25,1.86.75,2.66c.5.79,1.18,1.42,2.05,1.88.87.46,1.83.69,2.89.69s2.02-.22,2.89-.67c.74-.38,1.33-.89,1.79-1.52v1.83h4.73v-2.84h-1.95Zm-3.6-.86c-.33.41-.79.72-1.39.95-.6.22-1.29.34-2.06.34-.53,0-1.02-.11-1.47-.32-.45-.21-.79-.51-1.04-.89-.24-.38-.37-.79-.37-1.24s.12-.86.37-1.22c.24-.37.59-.66,1.04-.87.45-.21.94-.32,1.47-.32h3.94v2.14c0,.55-.16,1.03-.49,1.44Z"/>
        <g>
          <polygon class="cls-2" points="83.33 10.03 83.33 3.72 83.33 .37 79.54 .37 79.54 20.28 83.33 20.28 83.33 13.38 83.33 10.03"/>
          <path class="cls-2" d="m87.28.37h-2.88v3.35h2.54c2.56,0,3.65,1,3.65,3.15s-1.23,3.15-3.59,3.15h-2.61v3.35h3.01c4.51,0,7.1-2.79,7.1-6.51,0-4.32-2.46-6.51-7.24-6.51Z"/>
        </g>
      </g>
      <g>
        <path class="cls-2" d="m37.79,31.9h-.95v-4.3h1.68l.54,1.66c.09.27.24.82.36,1.33h.12c.11-.51.26-1.06.36-1.36l.54-1.63h1.55v4.3h-1.03v-1.8c0-.52.03-1.15.04-1.66h-.11c-.14.56-.32,1.21-.54,1.85l-.5,1.38h-.95l-.48-1.41c-.22-.67-.38-1.28-.52-1.82h-.11c0,.52,0,1.13,0,1.66v1.8Z"/>
        <path class="cls-2" d="m45.85,30.95h-1.66l-.29.95h-1.07l1.51-4.3h1.42l1.5,4.3h-1.1l-.29-.95Zm-1.43-.75h1.19l-.16-.53c-.12-.39-.24-.79-.34-1.18h-.17c-.11.39-.23.79-.35,1.18l-.17.53Z"/>
        <path class="cls-2" d="m48.09,27.6h1.84c1.51,0,2.18.75,2.18,2.1s-.82,2.2-2.19,2.2h-1.82v-4.3Zm1.03.85v2.6h.71c.9,0,1.24-.45,1.24-1.36s-.37-1.25-1.28-1.25h-.67Z"/>
        <path class="cls-2" d="m53.18,27.6h3.26v.9h-2.22v.83h2.04v.8h-2.04v.87h2.21v.9h-3.25v-4.3Z"/>
        <path class="cls-2" d="m59.33,30.42h-.65v1.48h-1.04v-4.3h1.89c1.1,0,1.67.47,1.67,1.4,0,.66-.31,1.09-.85,1.29l1.1,1.53v.08h-1.2l-.91-1.48Zm-.65-1.95v1.15h.77c.5,0,.72-.18.72-.58s-.2-.57-.72-.57h-.77Z"/>
        <path class="cls-2" d="m65.04,30.95h-1.66l-.29.95h-1.07l1.51-4.3h1.42l1.5,4.3h-1.1l-.29-.95Zm-1.43-.75h1.19l-.16-.53c-.12-.39-.24-.79-.34-1.18h-.17c-.11.39-.23.79-.35,1.18l-.17.53Z"/>
        <path class="cls-2" d="m66.93,30.63l.98-.21c.1.52.47.75,1,.75.48,0,.72-.16.72-.43,0-.3-.19-.46-1.01-.6-1.19-.19-1.56-.65-1.56-1.36,0-.81.57-1.29,1.74-1.29s1.64.52,1.76,1.26l-1.03.2c-.1-.44-.27-.66-.79-.66-.46,0-.67.16-.67.43,0,.25.12.43.97.58,1.33.24,1.62.74,1.62,1.36,0,.82-.54,1.33-1.8,1.33-1.38,0-1.84-.62-1.94-1.37Z"/>
        <path class="cls-2" d="m74.66,30.64v1.26h-1.03v-4.3h1.79c1.14,0,1.69.52,1.69,1.53,0,.84-.59,1.51-1.65,1.51h-.8Zm0-2.17v1.33h.68c.53,0,.75-.22.75-.67s-.2-.66-.76-.66h-.67Z"/>
        <path class="cls-2" d="m79.14,30.97h1.84v.93h-2.88v-4.3h1.03v3.38Z"/>
        <path class="cls-2" d="m84.7,30.95h-1.66l-.29.95h-1.07l1.51-4.3h1.42l1.5,4.3h-1.1l-.29-.95Zm-1.59-4.2l1.84-.69.23.72-1.91.46-.16-.49Zm.16,3.45h1.19l-.16-.53c-.12-.39-.24-.79-.34-1.18h-.17c-.11.39-.23.79-.35,1.18l-.17.53Z"/>
        <path class="cls-2" d="m86.6,30.63l.98-.21c.1.52.47.75,1,.75.48,0,.72-.16.72-.43,0-.3-.19-.46-1.01-.6-1.19-.19-1.56-.65-1.56-1.36,0-.81.57-1.29,1.74-1.29s1.64.52,1.76,1.26l-1.03.2c-.1-.44-.27-.66-.79-.66-.46,0-.67.16-.67.43,0,.25.12.43.97.58,1.33.24,1.62.74,1.62,1.36,0,.82-.54,1.33-1.8,1.33-1.38,0-1.84-.62-1.94-1.37Z"/>
        <path class="cls-2" d="m91.08,27.6h3.51v.95h-1.24v3.36h-1.03v-3.36h-1.24v-.95Z"/>
        <path class="cls-2" d="m95.59,31.9v-4.3h1.03v4.3h-1.03Z"/>
        <path class="cls-2" d="m97.72,29.73c0-1.41.82-2.24,2.13-2.24,1.13,0,1.81.6,1.94,1.67l-.98.19c-.11-.63-.39-.96-.99-.96-.76,0-1.08.58-1.08,1.33,0,.85.32,1.38,1.07,1.38.63,0,.89-.34,1.02-.98l.98.16c-.13,1.08-.84,1.7-1.99,1.7-1.33,0-2.1-.85-2.1-2.27Z"/>
        <path class="cls-2" d="m105.21,30.95h-1.66l-.29.95h-1.07l1.51-4.3h1.42l1.5,4.3h-1.1l-.29-.95Zm-1.43-.75h1.19l-.16-.53c-.12-.39-.24-.79-.34-1.18h-.17c-.11.39-.23.79-.35,1.18l-.17.53Z"/>
        <path class="cls-2" d="m107.1,30.63l.98-.21c.1.52.47.75,1,.75.48,0,.72-.16.72-.43,0-.3-.19-.46-1.01-.6-1.19-.19-1.56-.65-1.56-1.36,0-.81.57-1.29,1.74-1.29s1.64.52,1.76,1.26l-1.03.2c-.1-.44-.27-.66-.79-.66-.46,0-.67.16-.67.43,0,.25.12.43.97.58,1.33.24,1.62.74,1.62,1.36,0,.82-.54,1.33-1.8,1.33-1.38,0-1.84-.62-1.94-1.37Z"/>
      </g>
    </g>
  </g>
</svg>