<?xml version="1.0" encoding="UTF-8"?>
<svg xmlns="http://www.w3.org/2000/svg" xmlns:xlink="http://www.w3.org/1999/xlink" width="46px" height="46px" viewBox="0 0 46 46" version="1.1">
<g id="surface1">
<path style="fill:none;stroke-width:2;stroke-linecap:round;stroke-linejoin:round;stroke:rgb(15.686275%,15.686275%,15.686275%);stroke-opacity:1;stroke-miterlimit:4;" d="M 4.999321 16.000679 L 4.999321 19.999321 M 6 4.000679 L 6 7.999321 M 7.000679 18 L 3 18 M 7.999321 6 L 4.000679 6 M 13.000679 4.000679 L 14.753397 8.443614 C 14.940897 8.920516 15.034647 9.158967 15.179348 9.360734 C 15.305707 9.538043 15.462636 9.692935 15.639946 9.821332 C 15.841712 9.966033 16.080163 10.059783 16.555027 10.247283 L 21 12 L 16.555027 13.752717 C 16.080163 13.940217 15.841712 14.033967 15.639946 14.178668 C 15.462636 14.307065 15.305707 14.461957 15.179348 14.639266 C 15.034647 14.841033 14.940897 15.079484 14.753397 15.556386 L 13.000679 19.999321 L 11.247962 15.556386 C 11.058424 15.079484 10.964674 14.841033 10.822011 14.639266 C 10.693614 14.461957 10.538723 14.307065 10.359375 14.178668 C 10.159647 14.033967 9.921196 13.940217 9.444293 13.752717 L 4.999321 12 L 9.444293 10.247283 C 9.921196 10.059783 10.159647 9.966033 10.359375 9.821332 C 10.538723 9.692935 10.693614 9.538043 10.822011 9.360734 C 10.964674 9.158967 11.058424 8.920516 11.247962 8.443614 Z M 13.000679 4.000679 " transform="matrix(1.916667,0,0,1.916667,0,0)"/>
</g>
</svg>
