<?xml version="1.0" encoding="UTF-8"?>
<svg xmlns="http://www.w3.org/2000/svg" xmlns:xlink="http://www.w3.org/1999/xlink" width="28px" height="28px" viewBox="0 0 28 28" version="1.1">
<g id="surface1">
<path style=" stroke:none;fill-rule:evenodd;fill:rgb(86.274511%,89.803922%,89.411765%);fill-opacity:1;" d="M 22.652344 17.515625 C 22.457031 17.539062 22.273438 17.628906 22.132812 17.769531 L 20.5625 19.335938 L 19.867188 18.644531 C 19.527344 18.300781 18.972656 18.300781 18.632812 18.644531 C 18.289062 18.984375 18.289062 19.539062 18.632812 19.878906 L 19.945312 21.191406 C 20.285156 21.535156 20.839844 21.535156 21.179688 21.191406 L 23.367188 19.003906 C 23.710938 18.664062 23.710938 18.109375 23.367188 17.769531 C 23.179688 17.578125 22.917969 17.488281 22.652344 17.515625 Z M 22.652344 17.515625 "/>
<path style=" stroke:none;fill-rule:evenodd;fill:rgb(86.274511%,89.803922%,89.411765%);fill-opacity:1;" d="M 12.25 14.886719 C 11.765625 14.886719 11.375 15.277344 11.375 15.761719 C 11.375 16.246094 11.765625 16.636719 12.25 16.636719 L 14.875 16.636719 C 15.359375 16.636719 15.75 16.246094 15.75 15.761719 C 15.75 15.277344 15.359375 14.886719 14.875 14.886719 Z M 12.25 14.886719 "/>
<path style=" stroke:none;fill-rule:evenodd;fill:rgb(86.274511%,89.803922%,89.411765%);fill-opacity:1;" d="M 6.125 12.261719 C 5.640625 12.261719 5.25 12.652344 5.25 13.136719 L 5.25 16.636719 C 5.25 17.121094 5.640625 17.511719 6.125 17.511719 L 9.625 17.511719 C 10.109375 17.511719 10.5 17.121094 10.5 16.636719 L 10.5 13.136719 C 10.5 12.652344 10.109375 12.261719 9.625 12.261719 Z M 7 14.011719 L 8.75 14.011719 L 8.75 15.761719 L 7 15.761719 Z M 7 14.011719 "/>
<path style=" stroke:none;fill-rule:evenodd;fill:rgb(86.274511%,89.803922%,89.411765%);fill-opacity:1;" d="M 3.5 4.386719 C 2.546875 4.386719 1.75 5.183594 1.75 6.136719 L 1.75 19.261719 C 1.75 20.214844 2.546875 21.011719 3.5 21.011719 L 16.050781 21.011719 C 16.777344 23.046875 18.722656 24.511719 21 24.511719 C 23.890625 24.511719 26.25 22.152344 26.25 19.261719 C 26.25 17.714844 25.574219 16.320312 24.5 15.355469 L 24.5 6.136719 C 24.5 5.183594 23.703125 4.386719 22.75 4.386719 Z M 3.5 6.136719 L 22.75 6.136719 L 22.75 7.886719 L 3.5 7.886719 Z M 3.5 9.636719 L 22.75 9.636719 L 22.75 14.316406 C 22.6875 14.292969 22.621094 14.269531 22.558594 14.25 C 22.0625 14.09375 21.542969 14.011719 21 14.011719 C 18.199219 14.011719 15.898438 16.226562 15.757812 18.992188 C 15.753906 19.082031 15.75 19.171875 15.75 19.261719 L 3.5 19.261719 Z M 12.25 12.261719 C 11.765625 12.261719 11.375 12.652344 11.375 13.136719 C 11.375 13.621094 11.765625 14.011719 12.25 14.011719 L 16.625 14.011719 C 17.109375 14.011719 17.5 13.621094 17.5 13.136719 C 17.5 12.652344 17.109375 12.261719 16.625 12.261719 Z M 21 15.761719 C 22.941406 15.761719 24.5 17.320312 24.5 19.261719 C 24.5 21.207031 22.941406 22.761719 21 22.761719 C 19.335938 22.761719 17.957031 21.621094 17.59375 20.074219 C 17.589844 19.996094 17.574219 19.921875 17.546875 19.847656 C 17.546875 19.832031 17.542969 19.8125 17.539062 19.796875 C 17.53125 19.738281 17.523438 19.679688 17.519531 19.621094 C 17.507812 19.503906 17.5 19.382812 17.5 19.261719 C 17.5 19.203125 17.5 19.140625 17.503906 19.082031 C 17.511719 18.960938 17.523438 18.84375 17.539062 18.726562 C 17.546875 18.667969 17.558594 18.613281 17.570312 18.554688 C 17.894531 16.953125 19.300781 15.761719 21 15.761719 Z M 21 15.761719 "/>
</g>
</svg>
