<?xml version="1.0" encoding="UTF-8"?>
<svg xmlns="http://www.w3.org/2000/svg" xmlns:xlink="http://www.w3.org/1999/xlink" width="20px" height="20px" viewBox="0 0 20 20" version="1.1">
<g id="surface1">
<path style="fill-rule:nonzero;fill:rgb(15.686275%,15.686275%,15.686275%);fill-opacity:1;stroke-width:0.00024;stroke-linecap:butt;stroke-linejoin:miter;stroke:rgb(15.686275%,15.686275%,15.686275%);stroke-opacity:1;stroke-miterlimit:4;" d="M 6.014063 8.00625 C 6.126563 7.101563 7.303125 5.873438 8.235938 6.009375 L 8.23125 6.009375 C 9.140625 6.182813 9.857813 7.74375 10.265625 8.446875 C 10.551563 8.953125 10.364063 9.46875 10.096875 9.689063 C 9.735938 9.979688 9.16875 10.378125 9.290625 10.78125 C 9.501563 11.498438 12 14.001563 13.228125 14.709375 C 13.696875 14.98125 14.034375 14.26875 14.320313 13.907813 C 14.53125 13.626563 15.046875 13.457813 15.553125 13.734375 C 16.3125 14.179688 17.029688 14.690625 17.690625 15.271875 C 18.01875 15.54375 18.098438 15.951563 17.86875 16.382813 C 17.465625 17.142188 16.298438 18.145313 15.454688 17.94375 C 13.978125 17.5875 8.001563 15.271875 6.079688 8.559375 C 5.971875 8.240625 6 8.11875 6.014063 8.00625 Z M 6.014063 8.00625 " transform="matrix(0.833333,0,0,0.833333,0,0)"/>
<path style="fill-rule:evenodd;fill:rgb(15.686275%,15.686275%,15.686275%);fill-opacity:1;stroke-width:0.00024;stroke-linecap:butt;stroke-linejoin:miter;stroke:rgb(15.686275%,15.686275%,15.686275%);stroke-opacity:1;stroke-miterlimit:4;" d="M 12 23.001563 C 10.776563 23.001563 10.101563 22.870313 9 22.5 L 6.895313 23.554688 C 5.564063 24.215625 3.998438 23.25 3.998438 21.764063 L 3.998438 19.5 C 1.846875 17.49375 0.998438 15.178125 0.998438 12 C 0.998438 5.925 5.925 0.998438 12 0.998438 C 18.075 0.998438 23.001563 5.925 23.001563 12 C 23.001563 18.075 18.075 23.001563 12 23.001563 Z M 6 18.628125 L 5.3625 18.0375 C 3.689063 16.476563 3 14.732813 3 12 C 3 7.03125 7.03125 3 12 3 C 16.96875 3 21 7.03125 21 12 C 21 16.96875 16.96875 21 12 21 C 11.015625 21 10.551563 20.910938 9.6375 20.601563 L 8.85 20.339063 L 6 21.764063 Z M 6 18.628125 " transform="matrix(0.833333,0,0,0.833333,0,0)"/>
</g>
</svg>
